<?xml version="1.0" standalone="no"?>
<!DOCTYPE svg PUBLIC "-//W3C//DTD SVG 20010904//EN"
 "http://www.w3.org/TR/2001/REC-SVG-20010904/DTD/svg10.dtd">
<svg version="1.0" xmlns="http://www.w3.org/2000/svg"
 width="472.000000pt" height="265.000000pt" viewBox="0 0 472.000000 265.000000"
 preserveAspectRatio="xMidYMid meet">

<g transform="translate(0.000000,265.000000) scale(0.100000,-0.100000)"
fill="#000000" stroke="none">
<path d="M340 1980 l0 -492 243 4 c236 3 243 4 297 29 111 52 165 136 164 254
0 84 -22 133 -84 189 l-42 38 25 26 c47 51 62 92 62 172 0 112 -47 188 -148
242 -40 22 -55 23 -279 26 l-238 3 0 -491z m440 327 c36 -18 70 -74 70 -116 0
-20 -9 -51 -20 -69 -32 -52 -72 -63 -213 -60 l-122 3 -3 128 -3 127 133 0 c86
0 142 -5 158 -13z m29 -405 c52 -26 76 -65 76 -122 0 -57 -24 -96 -76 -123
-29 -14 -56 -17 -174 -15 l-140 3 -3 124 c-1 69 0 131 2 138 9 22 271 18 315
-5z"/>
<path d="M2090 2410 c-47 -47 1 -142 63 -126 88 22 83 136 -6 144 -26 2 -42
-3 -57 -18z"/>
<path d="M2535 2365 l-70 -21 -3 -77 -3 -77 -64 0 -65 0 0 -70 0 -70 65 0 65
0 0 -198 c0 -222 10 -273 61 -316 40 -34 88 -46 182 -46 l77 0 0 70 0 70 -65
0 c-105 0 -105 1 -105 230 l0 190 85 0 85 0 0 70 0 70 -85 0 -84 0 -3 98 -3
98 -70 -21z"/>
<path d="M4155 2365 l-70 -21 -3 -77 -3 -77 -64 0 -65 0 0 -70 0 -70 65 0 65
0 0 -202 c1 -211 8 -257 47 -300 35 -40 92 -58 186 -58 l87 0 0 70 0 70 -65 0
c-105 0 -105 1 -105 230 l0 190 85 0 85 0 0 70 0 70 -85 0 -84 0 -3 98 -3 98
-70 -21z"/>
<path d="M3145 2356 c-16 -8 -43 -28 -60 -45 l-30 -32 -3 -152 c-2 -113 1
-162 11 -192 16 -45 16 -44 107 -19 118 34 347 23 464 -22 29 -11 48 91 44
240 -3 126 -4 134 -30 168 -47 62 -72 68 -285 68 -135 -1 -196 -5 -218 -14z"/>
<path d="M1415 2201 c-95 -23 -181 -94 -227 -189 -31 -63 -33 -73 -33 -172 0
-94 3 -111 27 -160 33 -67 106 -142 167 -172 38 -19 62 -23 146 -23 113 0 153
14 212 72 l33 34 0 -51 0 -50 75 0 75 0 0 350 0 350 -75 0 -75 0 0 -46 0 -46
-46 41 c-70 62 -180 86 -279 62z m172 -146 c146 -43 201 -238 102 -359 -78
-93 -233 -102 -323 -18 -97 92 -87 270 21 346 65 45 122 54 200 31z"/>
<path d="M2070 1840 l0 -350 75 0 75 0 0 350 0 350 -75 0 -75 0 0 -350z"/>
<path d="M2882 2063 c4 -100 10 -141 28 -188 48 -126 126 -212 247 -272 71
-35 84 -38 182 -41 89 -3 117 0 171 18 132 44 227 129 288 258 36 75 37 80 40
215 4 131 3 137 -16 137 -23 0 -68 -33 -84 -63 -6 -12 -15 -62 -19 -110 -9
-109 -39 -176 -109 -241 -138 -129 -329 -134 -481 -15 -75 59 -129 179 -129
286 0 65 -20 107 -60 128 -62 32 -63 29 -58 -112z"/>
<path d="M3245 1880 c-27 -5 -69 -14 -93 -21 l-43 -12 33 -34 c81 -85 219
-115 330 -74 56 22 149 93 137 106 -29 29 -268 52 -364 35z"/>
<path d="M3693 1631 l-52 -47 25 -42 c25 -41 26 -42 80 -42 30 0 54 1 54 3 0
1 -13 41 -28 88 l-27 87 -52 -47z"/>
<path d="M2977 1663 c-7 -11 -47 -143 -47 -154 0 -5 24 -9 53 -9 52 0 53 0 77
46 24 43 24 46 7 55 -10 6 -33 24 -52 40 -18 16 -36 26 -38 22z"/>
<path d="M2645 1215 c-14 -13 -25 -33 -25 -45 0 -27 43 -70 70 -70 28 0 70 43
70 73 0 29 -39 67 -69 67 -12 0 -33 -11 -46 -25z"/>
<path d="M2830 1220 c-53 -53 7 -143 72 -109 30 16 38 28 38 62 0 34 -32 67
-65 67 -14 0 -34 -9 -45 -20z"/>
<path d="M776 1139 c-50 -40 -25 -119 39 -119 64 0 89 79 39 119 -15 12 -32
21 -39 21 -7 0 -24 -9 -39 -21z"/>
<path d="M973 1150 c-44 -18 -56 -73 -23 -108 29 -31 73 -29 99 4 26 33 26 55
4 82 -22 25 -51 33 -80 22z"/>
<path d="M1850 1031 c-139 -30 -230 -155 -230 -314 1 -110 36 -174 123 -219
35 -19 62 -23 170 -26 l127 -4 0 -30 c0 -48 -63 -104 -125 -113 -164 -21 -146
-13 -183 -83 l-33 -62 104 0 c219 0 332 74 368 240 l11 50 257 0 c278 0 345 9
375 52 l15 22 25 -27 c14 -15 37 -32 51 -37 37 -14 554 -13 610 1 25 6 56 22
71 36 l26 24 24 -26 c13 -14 35 -30 49 -35 16 -6 168 -10 371 -10 l344 0 0
280 0 280 -24 -10 c-13 -4 -42 -14 -65 -20 l-41 -11 0 -194 0 -195 -275 0
c-296 0 -319 3 -347 53 -8 14 -14 81 -16 195 -3 112 -8 172 -15 172 -5 0 -34
-8 -64 -17 l-53 -17 0 -167 c0 -234 28 -213 -299 -217 -281 -3 -305 0 -333 51
-8 14 -14 85 -18 197 l-5 176 -62 -19 -63 -19 0 -168 c0 -234 27 -214 -288
-218 l-249 -3 -6 103 c-7 126 -28 195 -79 252 -56 65 -159 96 -248 77z m132
-147 c37 -33 59 -99 65 -196 l6 -90 -109 4 c-158 6 -194 31 -194 137 0 62 34
128 80 153 44 24 120 20 152 -8z"/>
<path d="M1413 1008 l-63 -20 0 -194 0 -194 -382 0 c-211 1 -403 5 -427 9 -76
15 -85 33 -91 174 l-5 123 -62 -18 -63 -19 0 -127 c0 -160 16 -202 95 -242
l49 -25 508 -3 508 -3 0 281 c0 154 -1 280 -2 279 -2 -1 -31 -10 -65 -21z"/>
<path d="M3421 344 c-25 -32 -26 -52 -5 -82 21 -31 87 -31 108 0 51 73 -48
151 -103 82z"/>
<path d="M3607 352 c-22 -25 -21 -75 1 -95 25 -22 75 -21 95 1 22 25 21 75 -1
95 -25 22 -75 21 -95 -1z"/>
<path d="M4256 348 c-50 -71 45 -149 104 -86 42 46 14 108 -50 108 -29 0 -43
-6 -54 -22z"/>
</g>
</svg>
